<svg width="260" height="65.28" xmlns="http://www.w3.org/2000/svg" xmlns:xlink="http://www.w3.org/1999/xlink" xml:space="preserve" version="1.1">
 <g>
  <title>Layer 1</title>
  <defs>
   <rect height="65.28" width="457.46" y="0" id="SVGID_1_"/>
  </defs>
  <clipPath id="SVGID_00000012458798736507985450000000637921828590973352_">
   <use id="svg_3" xlink:href="#SVGID_1_"/>
  </clipPath>
  <g id="svg_32">
   <polygon id="svg_1" fill="#111242" points="38.27,0 26.91,20.91 15.64,0 1.27,0 20.09,31.55 0,64.73 14.46,64.73 26.91,42.18 39.46,64.73   53.91,64.73 33.73,31.55 52.55,0 " class="st0"/>
   <path style="--darkreader-inline-fill:#0e0e35;" id="svg_4" fill="#111242" clip-path="url(#SVGID_00000012458798736507985450000000637921828590973352_)" d="m71.64,65.28c-7,0 -11.82,-1.82 -16.64,-6.64l8.36,-8.27c2.09,2.09 4.09,3.64 8.27,3.64c6.18,0 10.18,-3.64 10.18,-11.09l0,-42.92l12.64,0l0,43.46c0.01,14.27 -10.81,21.82 -22.81,21.82"/>
   <polygon style="--darkreader-inline-fill:#0e0e35;" id="svg_5" fill="#111242" clip-path="url(#SVGID_00000012458798736507985450000000637921828590973352_)" points="133.46,11.27    133.46,64.73 120.82,64.73 120.82,11.27 103.91,11.27 103.91,0 150.37,0 150.37,11.27  "/>
   <polygon style="--darkreader-inline-fill:#0e0e35;" id="svg_6" fill="#111242" clip-path="url(#SVGID_00000012458798736507985450000000637921828590973352_)" points="160.64,64.73    160.64,0 173.28,0 173.28,53.46 202.64,53.46 202.64,64.73  "/>
   <path style="--darkreader-inline-fill:#0e0e35;" id="svg_7" fill="#111242" clip-path="url(#SVGID_00000012458798736507985450000000637921828590973352_)" d="m234.65,65.28c-13.27,0 -23.82,-9 -23.82,-22.73l0,-42.55l12.64,0l0,42.09c0,7.45 4.36,11.91 11.18,11.91c6.82,0 11.27,-4.46 11.27,-11.91l0,-42.09l12.55,0l0,42.55c-0.01,13.72 -10.55,22.73 -23.82,22.73"/>
  </g>
 </g>
</svg>