<?xml version="1.0"?><svg xmlns="http://www.w3.org/2000/svg" width="213" height="123"><rect x="0" y="0" width="100%" height="100%" fill="rgb(253, 121, 168)" /><polyline points="0, 0, 35.507041555162, 20.5, 0, 41, 0, 0" fill="#ddd" fill-opacity="0.072" stroke="#000" stroke-opacity="0.02" transform="translate(0, -20.5) rotate(180, 17.753520777581, 20.5)" /><polyline points="0, 0, 35.507041555162, 20.5, 0, 41, 0, 0" fill="#ddd" fill-opacity="0.072" stroke="#000" stroke-opacity="0.02" transform="translate(0, 102.5) rotate(180, 17.753520777581, 20.5)" /><polyline points="0, 0, 35.507041555162, 20.5, 0, 41, 0, 0" fill="#ddd" fill-opacity="0.072" stroke="#000" stroke-opacity="0.02" transform="translate(35.507041555162, -20.5) rotate(0, 17.753520777581, 20.5)" /><polyline points="0, 0, 35.507041555162, 20.5, 0, 41, 0, 0" fill="#ddd" fill-opacity="0.072" stroke="#000" stroke-opacity="0.02" transform="translate(35.507041555162, 102.5) rotate(0, 17.753520777581, 20.5)" /><polyline points="0, 0, 35.507041555162, 20.5, 0, 41, 0, 0" fill="#ddd" fill-opacity="0.14133333333333" stroke="#000" stroke-opacity="0.02" transform="translate(71.014083110324, -20.5) rotate(180, 17.753520777581, 20.5)" /><polyline points="0, 0, 35.507041555162, 20.5, 0, 41, 0, 0" fill="#ddd" fill-opacity="0.14133333333333" stroke="#000" stroke-opacity="0.02" transform="translate(71.014083110324, 102.5) rotate(180, 17.753520777581, 20.5)" /><polyline points="0, 0, 35.507041555162, 20.5, 0, 41, 0, 0" fill="#222" fill-opacity="0.15" stroke="#000" stroke-opacity="0.02" transform="translate(106.52112466549, -20.5) rotate(0, 17.753520777581, 20.5)" /><polyline points="0, 0, 35.507041555162, 20.5, 0, 41, 0, 0" fill="#222" fill-opacity="0.15" stroke="#000" stroke-opacity="0.02" transform="translate(106.52112466549, 102.5) rotate(0, 17.753520777581, 20.5)" /><polyline points="0, 0, 35.507041555162, 20.5, 0, 41, 0, 0" fill="#222" fill-opacity="0.13266666666667" stroke="#000" stroke-opacity="0.02" transform="translate(142.02816622065, -20.5) rotate(180, 17.753520777581, 20.5)" /><polyline points="0, 0, 35.507041555162, 20.5, 0, 41, 0, 0" fill="#222" fill-opacity="0.13266666666667" stroke="#000" stroke-opacity="0.02" transform="translate(142.02816622065, 102.5) rotate(180, 17.753520777581, 20.5)" /><polyline points="0, 0, 35.507041555162, 20.5, 0, 41, 0, 0" fill="#222" fill-opacity="0.098" stroke="#000" stroke-opacity="0.02" transform="translate(177.53520777581, -20.5) rotate(0, 17.753520777581, 20.5)" /><polyline points="0, 0, 35.507041555162, 20.5, 0, 41, 0, 0" fill="#222" fill-opacity="0.098" stroke="#000" stroke-opacity="0.02" transform="translate(177.53520777581, 102.5) rotate(0, 17.753520777581, 20.5)" /><polyline points="0, 0, 35.507041555162, 20.5, 0, 41, 0, 0" fill="#ddd" fill-opacity="0.14133333333333" stroke="#000" stroke-opacity="0.02" transform="translate(0, 0) rotate(0, 17.753520777581, 20.5)" /><polyline points="0, 0, 35.507041555162, 20.5, 0, 41, 0, 0" fill="#ddd" fill-opacity="0.14133333333333" stroke="#000" stroke-opacity="0.02" transform="translate(35.507041555162, 0) rotate(180, 17.753520777581, 20.5)" /><polyline points="0, 0, 35.507041555162, 20.5, 0, 41, 0, 0" fill="#222" fill-opacity="0.15" stroke="#000" stroke-opacity="0.02" transform="translate(71.014083110324, 0) rotate(0, 17.753520777581, 20.5)" /><polyline points="0, 0, 35.507041555162, 20.5, 0, 41, 0, 0" fill="#ddd" fill-opacity="0.14133333333333" stroke="#000" stroke-opacity="0.02" transform="translate(106.52112466549, 0) rotate(180, 17.753520777581, 20.5)" /><polyline points="0, 0, 35.507041555162, 20.5, 0, 41, 0, 0" fill="#ddd" fill-opacity="0.124" stroke="#000" stroke-opacity="0.02" transform="translate(142.02816622065, 0) rotate(0, 17.753520777581, 20.5)" /><polyline points="0, 0, 35.507041555162, 20.5, 0, 41, 0, 0" fill="#222" fill-opacity="0.15" stroke="#000" stroke-opacity="0.02" transform="translate(177.53520777581, 0) rotate(180, 17.753520777581, 20.5)" /><polyline points="0, 0, 35.507041555162, 20.5, 0, 41, 0, 0" fill="#ddd" fill-opacity="0.054666666666667" stroke="#000" stroke-opacity="0.02" transform="translate(0, 20.5) rotate(180, 17.753520777581, 20.5)" /><polyline points="0, 0, 35.507041555162, 20.5, 0, 41, 0, 0" fill="#222" fill-opacity="0.063333333333333" stroke="#000" stroke-opacity="0.02" transform="translate(35.507041555162, 20.5) rotate(0, 17.753520777581, 20.5)" /><polyline points="0, 0, 35.507041555162, 20.5, 0, 41, 0, 0" fill="#222" fill-opacity="0.13266666666667" stroke="#000" stroke-opacity="0.02" transform="translate(71.014083110324, 20.5) rotate(180, 17.753520777581, 20.5)" /><polyline points="0, 0, 35.507041555162, 20.5, 0, 41, 0, 0" fill="#222" fill-opacity="0.13266666666667" stroke="#000" stroke-opacity="0.02" transform="translate(106.52112466549, 20.5) rotate(0, 17.753520777581, 20.5)" /><polyline points="0, 0, 35.507041555162, 20.5, 0, 41, 0, 0" fill="#ddd" fill-opacity="0.072" stroke="#000" stroke-opacity="0.02" transform="translate(142.02816622065, 20.5) rotate(180, 17.753520777581, 20.5)" /><polyline points="0, 0, 35.507041555162, 20.5, 0, 41, 0, 0" fill="#ddd" fill-opacity="0.054666666666667" stroke="#000" stroke-opacity="0.02" transform="translate(177.53520777581, 20.5) rotate(0, 17.753520777581, 20.5)" /><polyline points="0, 0, 35.507041555162, 20.5, 0, 41, 0, 0" fill="#ddd" fill-opacity="0.14133333333333" stroke="#000" stroke-opacity="0.02" transform="translate(0, 41) rotate(0, 17.753520777581, 20.5)" /><polyline points="0, 0, 35.507041555162, 20.5, 0, 41, 0, 0" fill="#222" fill-opacity="0.15" stroke="#000" stroke-opacity="0.02" transform="translate(35.507041555162, 41) rotate(180, 17.753520777581, 20.5)" /><polyline points="0, 0, 35.507041555162, 20.5, 0, 41, 0, 0" fill="#222" fill-opacity="0.15" stroke="#000" stroke-opacity="0.02" transform="translate(71.014083110324, 41) rotate(0, 17.753520777581, 20.5)" /><polyline points="0, 0, 35.507041555162, 20.5, 0, 41, 0, 0" fill="#ddd" fill-opacity="0.089333333333333" stroke="#000" stroke-opacity="0.02" transform="translate(106.52112466549, 41) rotate(180, 17.753520777581, 20.5)" /><polyline points="0, 0, 35.507041555162, 20.5, 0, 41, 0, 0" fill="#ddd" fill-opacity="0.14133333333333" stroke="#000" stroke-opacity="0.02" transform="translate(142.02816622065, 41) rotate(0, 17.753520777581, 20.5)" /><polyline points="0, 0, 35.507041555162, 20.5, 0, 41, 0, 0" fill="#222" fill-opacity="0.063333333333333" stroke="#000" stroke-opacity="0.02" transform="translate(177.53520777581, 41) rotate(180, 17.753520777581, 20.5)" /><polyline points="0, 0, 35.507041555162, 20.5, 0, 41, 0, 0" fill="#ddd" fill-opacity="0.124" stroke="#000" stroke-opacity="0.02" transform="translate(0, 61.5) rotate(180, 17.753520777581, 20.5)" /><polyline points="0, 0, 35.507041555162, 20.5, 0, 41, 0, 0" fill="#222" fill-opacity="0.11533333333333" stroke="#000" stroke-opacity="0.02" transform="translate(35.507041555162, 61.5) rotate(0, 17.753520777581, 20.5)" /><polyline points="0, 0, 35.507041555162, 20.5, 0, 41, 0, 0" fill="#ddd" fill-opacity="0.037333333333333" stroke="#000" stroke-opacity="0.02" transform="translate(71.014083110324, 61.5) rotate(180, 17.753520777581, 20.5)" /><polyline points="0, 0, 35.507041555162, 20.5, 0, 41, 0, 0" fill="#222" fill-opacity="0.13266666666667" stroke="#000" stroke-opacity="0.02" transform="translate(106.52112466549, 61.5) rotate(0, 17.753520777581, 20.5)" /><polyline points="0, 0, 35.507041555162, 20.5, 0, 41, 0, 0" fill="#222" fill-opacity="0.028666666666667" stroke="#000" stroke-opacity="0.02" transform="translate(142.02816622065, 61.5) rotate(180, 17.753520777581, 20.5)" /><polyline points="0, 0, 35.507041555162, 20.5, 0, 41, 0, 0" fill="#222" fill-opacity="0.046" stroke="#000" stroke-opacity="0.02" transform="translate(177.53520777581, 61.5) rotate(0, 17.753520777581, 20.5)" /><polyline points="0, 0, 35.507041555162, 20.5, 0, 41, 0, 0" fill="#ddd" fill-opacity="0.14133333333333" stroke="#000" stroke-opacity="0.02" transform="translate(0, 82) rotate(0, 17.753520777581, 20.5)" /><polyline points="0, 0, 35.507041555162, 20.5, 0, 41, 0, 0" fill="#ddd" fill-opacity="0.02" stroke="#000" stroke-opacity="0.02" transform="translate(35.507041555162, 82) rotate(180, 17.753520777581, 20.5)" /><polyline points="0, 0, 35.507041555162, 20.5, 0, 41, 0, 0" fill="#ddd" fill-opacity="0.02" stroke="#000" stroke-opacity="0.02" transform="translate(71.014083110324, 82) rotate(0, 17.753520777581, 20.5)" /><polyline points="0, 0, 35.507041555162, 20.5, 0, 41, 0, 0" fill="#222" fill-opacity="0.063333333333333" stroke="#000" stroke-opacity="0.02" transform="translate(106.52112466549, 82) rotate(180, 17.753520777581, 20.5)" /><polyline points="0, 0, 35.507041555162, 20.5, 0, 41, 0, 0" fill="#ddd" fill-opacity="0.02" stroke="#000" stroke-opacity="0.02" transform="translate(142.02816622065, 82) rotate(0, 17.753520777581, 20.5)" /><polyline points="0, 0, 35.507041555162, 20.5, 0, 41, 0, 0" fill="#ddd" fill-opacity="0.054666666666667" stroke="#000" stroke-opacity="0.02" transform="translate(177.53520777581, 82) rotate(180, 17.753520777581, 20.5)" /></svg>