<?xml version="1.0"?><svg xmlns="http://www.w3.org/2000/svg" width="56" height="65"><rect x="0" y="0" width="100%" height="100%" fill="rgb(129, 236, 236)" /><rect x="-6" y="-6" width="12" height="12" stroke="#000" stroke-opacity="0.02" fill="#222" fill-opacity="0.046" stroke-width="1" /><rect x="50.784609690827" y="-6" width="12" height="12" stroke="#000" stroke-opacity="0.02" fill="#222" fill-opacity="0.046" stroke-width="1" /><rect x="-6" y="59.569219381653" width="12" height="12" stroke="#000" stroke-opacity="0.02" fill="#222" fill-opacity="0.046" stroke-width="1" /><rect x="50.784609690827" y="59.569219381653" width="12" height="12" stroke="#000" stroke-opacity="0.02" fill="#222" fill-opacity="0.046" stroke-width="1" /><rect x="22.392304845413" y="10.392304845413" width="12" height="12" stroke="#000" stroke-opacity="0.02" fill="#ddd" fill-opacity="0.02" stroke-width="1" /><rect x="-6" y="26.784609690827" width="12" height="12" stroke="#000" stroke-opacity="0.02" fill="#222" fill-opacity="0.028666666666667" stroke-width="1" /><rect x="50.784609690827" y="26.784609690827" width="12" height="12" stroke="#000" stroke-opacity="0.02" fill="#222" fill-opacity="0.028666666666667" stroke-width="1" /><rect x="22.392304845413" y="43.17691453624" width="12" height="12" stroke="#000" stroke-opacity="0.02" fill="#222" fill-opacity="0.046" stroke-width="1" /><polyline points="0, 0, 10.392304845413, 6, 0, 12, 0, 0" stroke="#000" stroke-opacity="0.02" fill="#222" fill-opacity="0.080666666666667" stroke-width="1" transform="translate(6, -6) rotate(0, 6, 5.1961524227066)" /><polyline points="0, 0, 10.392304845413, 6, 0, 12, 0, 0" stroke="#000" stroke-opacity="0.02" fill="#222" fill-opacity="0.080666666666667" stroke-width="1" transform="translate(6, 71.569219381653) rotate(0, 6, 5.1961524227066) scale(1, -1)" /><polyline points="0, 0, 10.392304845413, 6, 0, 12, 0, 0" stroke="#000" stroke-opacity="0.02" fill="#222" fill-opacity="0.080666666666667" stroke-width="1" transform="translate(50.784609690827, -6) rotate(0, 6, 5.1961524227066) scale(-1, 1)" /><polyline points="0, 0, 10.392304845413, 6, 0, 12, 0, 0" stroke="#000" stroke-opacity="0.02" fill="#222" fill-opacity="0.080666666666667" stroke-width="1" transform="translate(50.784609690827, 71.569219381653) rotate(0, 6, 5.1961524227066) scale(-1, -1)" /><polyline points="0, 0, 10.392304845413, 6, 0, 12, 0, 0" stroke="#000" stroke-opacity="0.02" fill="#222" fill-opacity="0.13266666666667" stroke-width="1" transform="translate(34.392304845413, 10.392304845413)" /><polyline points="0, 0, 10.392304845413, 6, 0, 12, 0, 0" stroke="#000" stroke-opacity="0.02" fill="#ddd" fill-opacity="0.072" stroke-width="1" transform="translate(22.392304845413, 10.392304845413) scale(-1, 1)" /><polyline points="0, 0, 10.392304845413, 6, 0, 12, 0, 0" stroke="#000" stroke-opacity="0.02" fill="#222" fill-opacity="0.15" stroke-width="1" transform="translate(34.392304845413, 55.17691453624) scale(1, -1)" /><polyline points="0, 0, 10.392304845413, 6, 0, 12, 0, 0" stroke="#000" stroke-opacity="0.02" fill="#222" fill-opacity="0.098" stroke-width="1" transform="translate(22.392304845413, 55.17691453624) scale(-1, -1)" /><polyline points="0, 0, 10.392304845413, 6, 0, 12, 0, 0" stroke="#000" stroke-opacity="0.02" fill="#222" fill-opacity="0.028666666666667" stroke-width="1" transform="translate(6, 26.784609690827)" /><polyline points="0, 0, 10.392304845413, 6, 0, 12, 0, 0" stroke="#000" stroke-opacity="0.02" fill="#222" fill-opacity="0.063333333333333" stroke-width="1" transform="translate(50.784609690827, 26.784609690827) scale(-1, 1)" /><rect x="0" y="0" width="12" height="12" stroke="#000" stroke-opacity="0.02" fill="#222" fill-opacity="0.063333333333333" stroke-width="1" transform="translate(6, 6) rotate(-30, 0, 0)" /><rect x="0" y="0" width="12" height="12" stroke="#000" stroke-opacity="0.02" fill="#222" fill-opacity="0.028666666666667" stroke-width="1" transform="scale(-1, 1) translate(-50.784609690827, 6) rotate(-30, 0, 0)" /><rect x="0" y="0" width="12" height="12" stroke="#000" stroke-opacity="0.02" fill="#ddd" fill-opacity="0.124" stroke-width="1" transform="translate(6, 14.784609690827) rotate(30, 0, 12)" /><rect x="0" y="0" width="12" height="12" stroke="#000" stroke-opacity="0.02" fill="#222" fill-opacity="0.080666666666667" stroke-width="1" transform="scale(-1, 1) translate(-50.784609690827, 14.784609690827) rotate(30, 0, 12)" /><rect x="0" y="0" width="12" height="12" stroke="#000" stroke-opacity="0.02" fill="#ddd" fill-opacity="0.072" stroke-width="1" transform="scale(1, -1) translate(6, -50.784609690827) rotate(30, 0, 12)" /><rect x="0" y="0" width="12" height="12" stroke="#000" stroke-opacity="0.02" fill="#222" fill-opacity="0.11533333333333" stroke-width="1" transform="scale(-1, -1) translate(-50.784609690827, -50.784609690827) rotate(30, 0, 12)" /><rect x="0" y="0" width="12" height="12" stroke="#000" stroke-opacity="0.02" fill="#222" fill-opacity="0.13266666666667" stroke-width="1" transform="scale(1, -1) translate(6, -59.569219381653) rotate(-30, 0, 0)" /><rect x="0" y="0" width="12" height="12" stroke="#000" stroke-opacity="0.02" fill="#ddd" fill-opacity="0.14133333333333" stroke-width="1" transform="scale(-1, -1) translate(-50.784609690827, -59.569219381653) rotate(-30, 0, 0)" /></svg>